<?xml version="1.0" standalone="no"?>
<!DOCTYPE svg PUBLIC "-//W3C//DTD SVG 20010904//EN"
 "http://www.w3.org/TR/2001/REC-SVG-20010904/DTD/svg10.dtd">
<svg version="1.0" xmlns="http://www.w3.org/2000/svg"
 width="274.000000pt" height="274.000000pt" viewBox="0 0 274.000000 274.000000"
 preserveAspectRatio="xMidYMid meet">
<metadata>
Created by potrace 1.11, written by Peter Selinger 2001-2013
</metadata>
<g transform="translate(0.000000,274.000000) scale(0.100000,-0.100000)"
fill="#000000" stroke="none">
<path d="M1325 2599 c-71 -57 -133 -117 -127 -124 3 -3 1 -5 -5 -5 -6 0 -28
-17 -49 -38 -22 -20 -57 -50 -79 -66 -22 -16 -52 -42 -67 -58 -16 -16 -28 -26
-28 -23 0 3 -15 -8 -32 -24 -18 -17 -38 -31 -44 -31 -7 0 -38 -29 -70 -65 -33
-36 -89 -85 -126 -110 -36 -24 -70 -50 -75 -57 -4 -7 -8 -344 -9 -748 -1 -404
-4 -745 -8 -757 -4 -12 -23 -31 -42 -42 -132 -78 -364 -325 -334 -355 7 -7 27
6 63 42 29 29 56 49 60 46 4 -4 7 -2 7 4 0 7 3 11 7 10 5 -2 35 16 68 38 33
23 114 70 180 104 66 35 131 72 144 82 24 18 61 24 61 10 0 -5 -20 -30 -45
-56 -25 -27 -42 -52 -40 -56 3 -5 0 -20 -6 -34 -11 -22 -9 -28 12 -45 13 -11
42 -26 64 -34 35 -11 44 -11 71 2 34 18 107 72 112 84 2 4 10 7 18 7 8 0 14 7
14 15 0 8 6 15 13 15 7 0 37 22 65 49 47 45 143 101 172 101 12 0 72 29 80 39
14 18 286 111 324 111 13 0 31 6 38 13 7 7 16 14 21 15 4 1 8 2 10 3 1 0 26 2
54 4 29 2 72 9 95 16 24 6 51 13 60 15 10 2 26 6 37 8 70 16 318 39 401 38
108 -2 265 -14 274 -21 6 -4 24 -11 40 -15 26 -6 28 -5 17 8 -13 15 -98 61
-116 62 -5 0 -39 6 -75 12 -36 7 -76 14 -90 16 -14 3 -25 5 -25 6 0 5 -48 12
-105 15 -36 3 -79 7 -96 10 l-32 5 -2 208 c-1 114 -2 366 -1 559 l1 353 -42
26 c-23 15 -53 37 -67 50 -14 13 -29 24 -33 24 -5 0 -8 6 -8 13 -1 14 -55 77
-67 77 -5 0 -22 12 -38 28 -17 15 -49 44 -73 65 -23 20 -39 37 -35 37 10 0
-22 28 -95 83 -34 26 -67 47 -72 47 -6 0 -10 4 -10 8 0 5 -12 15 -27 23 -30
16 -78 55 -102 83 -60 70 -116 119 -133 115 -2 0 -25 -18 -53 -40z m103 -204
c12 -4 22 -11 22 -16 0 -5 6 -9 13 -9 7 0 44 -33 83 -72 38 -40 85 -85 104
-100 19 -14 57 -47 83 -72 27 -25 55 -46 63 -46 8 0 26 -14 41 -32 16 -17 41
-43 57 -57 17 -14 46 -42 66 -61 l37 -35 -1 -532 c-1 -292 -4 -534 -7 -537 -3
-4 -41 -8 -84 -11 -65 -3 -85 0 -119 17 -36 19 -51 20 -146 14 -233 -15 -530
-99 -781 -221 -39 -19 -75 -32 -80 -29 -5 3 -9 294 -9 652 0 646 0 648 21 662
11 8 29 22 38 30 104 89 150 130 175 158 17 19 47 51 66 72 20 21 59 51 87 67
54 30 138 92 188 140 30 29 42 32 83 18z"/>
<path d="M1092 1710 c-11 -8 -8 -780 3 -781 50 -6 137 -4 141 3 4 5 6 137 6
292 0 156 4 289 8 296 7 12 79 15 200 10 l35 -2 -50 -23 c-56 -27 -85 -31 -86
-12 0 6 -5 1 -10 -13 -10 -23 -14 -619 -4 -628 2 -2 48 14 102 36 85 34 107
39 166 37 54 -2 69 1 75 14 4 9 6 81 5 161 -2 80 -3 161 -2 180 1 19 1 55 0
80 0 25 0 61 0 80 1 19 1 55 0 80 0 25 0 61 0 80 3 70 1 101 -5 108 -8 8 -574
10 -584 2z"/>
</g>
</svg>
